<?xml version="1.0" encoding="utf-8"?>
<!-- Generator: Adobe Illustrator 16.0.0, SVG Export Plug-In . SVG Version: 6.00 Build 0)  -->
<!DOCTYPE svg PUBLIC "-//W3C//DTD SVG 1.1//EN" "http://www.w3.org/Graphics/SVG/1.1/DTD/svg11.dtd">
<svg version="1.1" id="Capa_1" xmlns="http://www.w3.org/2000/svg" xmlns:xlink="http://www.w3.org/1999/xlink" x="0px" y="0px"
	 width="500px" height="500px" viewBox="0 0 500 500" enable-background="new 0 0 500 500" xml:space="preserve">
<g>
	<path fill="#F9AFE5" d="M248.561,106.95c19.188-46.899,64.647-77.703,115.318-78.141c69.471,0,119.498,59.427,125.788,130.252
		c1.811,16.521,0.427,33.237-4.075,49.235c-10.426,42.732-33.556,81.302-66.341,110.625l-170.69,152.282L80.749,318.912
		c-32.786-29.324-55.915-67.895-66.341-110.626c-4.503-15.999-5.886-32.714-4.075-49.235C16.622,88.227,66.65,28.799,136.122,28.799
		C186.076,29.343,230.64,60.318,248.561,106.95z"/>
	<path fill="#EFE4EF" d="M246.229,106.95c19.412-45.998,38.751-78.141,90.328-78.141c69.472,0,119.499,59.427,125.789,130.252
		c1.811,16.521,0.427,33.237-4.076,49.235c-10.426,42.732-33.556,81.302-66.341,110.625l-145.7,152.282L78.417,318.912
		c-31.674-29.599-53.484-68.218-62.477-110.626c-4.503-15.999-5.886-32.714-4.075-49.235
		c6.29-70.824,52.453-130.252,121.924-130.252C183.744,29.343,228.308,60.317,246.229,106.95z"/>
	<path fill="#FFFFFF" d="M11.864,159.061c6.29-70.826,56.317-130.254,125.79-130.254c4.538,0.028,9.07,0.309,13.577,0.841
		C88.981,36.91,45.052,93.007,39.186,159.061c-1.811,16.521-0.427,33.235,4.076,49.233c10.426,42.732,33.555,81.303,66.341,110.627
		L254.22,470.07l-1.249,1.133L82.281,318.922c-32.786-29.324-55.916-67.895-66.341-110.627
		C11.437,192.297,10.054,175.583,11.864,159.061z"/>
	<g>
		<path fill="#FF3E5F" d="M248.563,480.82c-2.39,0.002-4.694-0.889-6.461-2.499L74.284,326.028
			c-34.287-30.577-58.439-70.879-69.239-115.532c-4.678-17.143-6.12-35.008-4.255-52.68C8.089,77.467,64.958,19.18,136.122,19.18
			c46.729,0.248,89.709,25.625,112.498,66.42c24.024-40.91,67.818-66.143,115.26-66.411c71.163,0,128.032,58.287,135.33,138.636
			c1.865,17.672,0.423,35.537-4.255,52.68c-10.802,44.655-34.953,84.959-69.239,115.542l-170.747,152.33
			C253.205,479.951,250.926,480.82,248.563,480.82z M136.122,38.416c-61.085,0-109.953,51.093-116.208,121.487
			c-0.028,0.325-0.075,0.647-0.141,0.967c-1.439,15.189-0.082,30.514,4.001,45.213c9.905,40.864,32.034,77.734,63.434,105.698
			L248.62,458.269l164.23-146.526c31.374-27.957,53.481-64.811,63.379-105.651c4.097-14.717,5.447-30.063,3.982-45.27
			c-6.378-71.305-55.254-122.398-116.33-122.398c-46.803,0.444-88.77,28.93-106.459,72.263c-1.502,3.563-4.99,5.879-8.857,5.879
			c-3.866,0-7.356-2.317-8.856-5.879C223.184,67.698,182.172,39.084,136.122,38.416z"/>
		<path fill="#FF3E5F" d="M67.268,183.429c-2.551,0.001-4.998-1.011-6.802-2.815s-2.817-4.251-2.815-6.802
			c0.063-53.09,43.084-96.113,96.175-96.175c5.312,0,9.617,4.306,9.617,9.617c0,5.312-4.306,9.617-9.617,9.617
			c-42.472,0.049-76.891,34.468-76.94,76.94c0.001,2.551-1.011,4.998-2.815,6.802C72.266,182.418,69.819,183.431,67.268,183.429z"/>
	</g>
</g>
</svg>
