<?xml version="1.0" encoding="utf-8"?>
<!-- Generator: Adobe Illustrator 16.0.0, SVG Export Plug-In . SVG Version: 6.00 Build 0)  -->
<!DOCTYPE svg PUBLIC "-//W3C//DTD SVG 1.1//EN" "http://www.w3.org/Graphics/SVG/1.1/DTD/svg11.dtd">
<svg version="1.1" id="레이어_1" xmlns="http://www.w3.org/2000/svg" xmlns:xlink="http://www.w3.org/1999/xlink" x="0px"
	 y="0px" width="500px" height="500px" viewBox="0 0 500 500" enable-background="new 0 0 500 500" xml:space="preserve">
<path fill="#F7C92B" d="M308.563,426.531c0-32.292-26.219-58.468-58.563-58.468c-32.345,0-58.563,26.176-58.563,58.468
	c0,32.291,26.218,58.469,58.563,58.469C282.345,485,308.563,458.822,308.563,426.531z"/>
<path fill="#F2B51D" d="M250.001,368.063c-5.92,0-11.636,0.885-17.021,2.518c24.04,7.278,41.542,29.568,41.542,55.95
	c0,26.379-17.502,48.672-41.542,55.95c5.386,1.633,11.102,2.519,17.021,2.519c32.344,0,58.563-26.178,58.563-58.469
	C308.563,394.239,282.345,368.063,250.001,368.063z"/>
<path fill="#F7C92B" d="M256.843,85.291c-18.811,3.773-37.116-8.388-40.896-27.168c-3.78-18.776,8.404-37.056,27.21-40.829
	s37.117,8.388,40.897,27.168C287.831,63.239,275.65,81.519,256.843,85.291z"/>
<path fill="#F2B51D" d="M284.054,44.462c-3.78-18.78-22.092-30.941-40.897-27.168c-1.751,0.351-3.44,0.832-5.069,1.419
	c10.979,4.013,19.672,13.466,22.144,25.749c3.43,17.029-6.274,33.649-22.14,39.41c5.806,2.121,12.248,2.724,18.752,1.419
	C275.65,81.519,287.831,63.239,284.054,44.462z"/>
<path fill="#F7E249" d="M395.05,416.746H104.949c-25.959,0-47.001-21.007-47.001-46.921c0-14.347,6.504-27.923,17.689-36.93
	l9.319-7.508c21.557-17.355,34.092-43.521,34.092-71.17v-49.313c0-72.758,59.074-131.737,131.951-131.737
	c72.872,0,131.95,58.979,131.95,131.737v50.225c0,27.125,12.065,52.854,32.937,70.229l9.074,7.553
	c10.83,9.015,17.091,22.365,17.091,36.441v0.473C442.051,395.739,421.009,416.746,395.05,416.746z"/>
<path fill="#F7C92B" d="M424.961,332.911l-9.074-7.553c-20.87-17.377-32.937-43.104-32.937-70.232v-50.225
	c0-72.754-59.079-131.737-131.951-131.737c-12.912,0-25.387,1.862-37.178,5.314c54.771,16.026,94.772,66.559,94.772,126.423v50.225
	c0,27.129,12.065,52.855,32.936,70.232l9.08,7.553c10.826,9.015,17.09,22.365,17.09,36.441v0.473
	c0,25.914-21.043,46.921-47.002,46.921h74.356c25.955,0,46.997-21.007,46.997-46.921v-0.473
	C442.051,355.276,435.791,341.925,424.961,332.911z"/>
</svg>
